<svg xmlns="http://www.w3.org/2000/svg" viewBox="0 0 143.61756 144.34417"><defs><style>.cls-1{fill:#ee3724;}.cls-2{fill:#fff;}</style></defs><title>sstk-icon</title><g id="Layer_2" data-name="Layer 2"><path class="cls-1" d="M0,144.34417H143.61756V0H0ZM88.54712,96.16a5.77627,5.77627,0,0,0,1.55749-4.18209c-.01652-5.97918-.00672-11.95845-.00654-17.93767.00009-1.05686-.00411-2.11376.00495-3.17054.00455-.5291.16109-.677.67487-.67683q9.62022.00292,19.24055.00822c.65816.0004.85284.18559.85359.84776q.00656,5.68959.00212,11.37917h.00137q0,5.12506-.00137,10.25012a27.80484,27.80484,0,0,1-.45081,4.42154,21.50344,21.50344,0,0,1-1.15409,4.15074,24.74217,24.74217,0,0,1-2.24689,4.519,25.5533,25.5533,0,0,1-3.19843,4.11307,26.03334,26.03334,0,0,1-3.28544,2.864,31.882,31.882,0,0,1-4.01067,2.51887,25.22978,25.22978,0,0,1-5.34768,2.03728,29.47819,29.47819,0,0,1-7.66947.85344c-6.48586-.02163-12.97189-.00579-19.45784-.00608-.74777,0-.786-.03789-.78621-.7895q-.00173-9.186-.00009-18.372c.00022-.93752.00481-.94426.92053-.94492,6.64519-.00464,13.29042.0053,19.93556-.017A5.95018,5.95018,0,0,0,88.54712,96.16ZM33.91859,44.93027a22.70338,22.70338,0,0,1,2.2309-5.13281A28.98653,28.98653,0,0,1,39.266,35.46824,24.56625,24.56625,0,0,1,43.58442,31.573c1.03429-.74519,2.18594-1.32692,3.28095-1.98859A23.71534,23.71534,0,0,1,51.768,27.565c.74481-.24726,1.55007-.30644,2.3095-.51722a16.44412,16.44412,0,0,1,3.89284-.486c2.227-.0724,4.4571-.05963,6.686-.06471q5.47188-.01247,10.94381-.0004c1.34478.002,2.68952.0215,4.03422.04054.69245.00983.83075.1559.83075.85514Q80.465,34.12368,80.4618,40.855q-.00066,2.25825-.00079,4.51651c-.00009.14475.00419.28989-.00464.43418-.04547.74127-.155.83468-.88125.83481-6.77474.00121-13.5504-.05682-20.32373.04308a5.57052,5.57052,0,0,0-5.27446,3.70094,6.27167,6.27167,0,0,0-.39678,2.23629c-.03159,6.99174-.02235,13.98369-.02514,20.97557-.00031.79239-.1151.90568-.9025.90577q-9.489.0009-18.978.00272c-.73908.00013-.8168-.06844-.81742-.82218q-.00488-5.97133-.00155-11.94265,0-2.52969.00614-5.05941.00225-2.52969-.01263-5.05927A23.55021,23.55021,0,0,1,33.91859,44.93027Z"/><path class="cls-2" d="M88.54712,96.16a5.77627,5.77627,0,0,0,1.55749-4.18209c-.01652-5.97918-.00672-11.95845-.00654-17.93767.00009-1.05686-.00411-2.11376.00495-3.17054.00455-.5291.16109-.677.67487-.67683q9.62022.00292,19.24055.00822c.65816.0004.85284.18559.85359.84776q.00656,5.68959.00212,11.37917h.00137q0,5.12506-.00137,10.25012a27.80484,27.80484,0,0,1-.45081,4.42154,21.50344,21.50344,0,0,1-1.15409,4.15074,24.74217,24.74217,0,0,1-2.24689,4.519,25.5533,25.5533,0,0,1-3.19843,4.11307,26.03334,26.03334,0,0,1-3.28544,2.864,31.882,31.882,0,0,1-4.01067,2.51887,25.22978,25.22978,0,0,1-5.34768,2.03728,29.47819,29.47819,0,0,1-7.66947.85344c-6.48586-.02163-12.97189-.00579-19.45784-.00608-.74777,0-.786-.03789-.78621-.7895q-.00173-9.186-.00009-18.372c.00022-.93752.00481-.94426.92053-.94492,6.64519-.00464,13.29042.0053,19.93556-.017A5.95018,5.95018,0,0,0,88.54712,96.16Z"/><path class="cls-2" d="M33.91859,44.93027a22.70338,22.70338,0,0,1,2.2309-5.13281A28.98653,28.98653,0,0,1,39.266,35.46824,24.56625,24.56625,0,0,1,43.58442,31.573c1.03429-.74519,2.18594-1.32692,3.28095-1.98859A23.71534,23.71534,0,0,1,51.768,27.565c.74481-.24726,1.55007-.30644,2.3095-.51722a16.44412,16.44412,0,0,1,3.89284-.486c2.227-.0724,4.4571-.05963,6.686-.06471q5.47188-.01247,10.94381-.0004c1.34478.002,2.68952.0215,4.03422.04054.69245.00983.83075.1559.83075.85514Q80.465,34.12368,80.4618,40.855q-.00066,2.25825-.00079,4.51651c-.00009.14475.00419.28989-.00464.43418-.04547.74127-.155.83468-.88125.83481-6.77474.00121-13.5504-.05682-20.32373.04308a5.57052,5.57052,0,0,0-5.27446,3.70094,6.27167,6.27167,0,0,0-.39678,2.23629c-.03159,6.99174-.02235,13.98369-.02514,20.97557-.00031.79239-.1151.90568-.9025.90577q-9.489.0009-18.978.00272c-.73908.00013-.8168-.06844-.81742-.82218q-.00488-5.97133-.00155-11.94265,0-2.52969.00614-5.05941.00225-2.52969-.01263-5.05927A23.55021,23.55021,0,0,1,33.91859,44.93027Z"/></g></svg>